<svg width="22" height="13" viewBox="0 0 22 13" fill="none" xmlns="http://www.w3.org/2000/svg">
<path d="M8.34203 12.7814L6.41103 12.2634L7.19803 9.32438C6.01999 8.8899 4.92514 8.25674 3.96103 7.45237L1.80803 9.60637L0.393025 8.19138L2.54703 6.03837C1.3311 4.58213 0.514113 2.83514 0.176025 0.968375L2.14403 0.609375C2.90303 4.81138 6.57903 7.99937 11 7.99937C15.42 7.99937 19.097 4.81138 19.856 0.609375L21.824 0.967375C21.4864 2.83439 20.6697 4.58174 19.454 6.03837L21.607 8.19138L20.192 9.60637L18.039 7.45237C17.0749 8.25674 15.9801 8.8899 14.802 9.32438L15.589 12.2644L13.658 12.7814L12.87 9.84138C11.6324 10.0535 10.3677 10.0535 9.13003 9.84138L8.34203 12.7814Z" fill="#212121"/>
</svg>
